<svg width="38" height="38" fill="none" xmlns="http://www.w3.org/2000/svg"><g clip-path="url(#a)"><path d="M37.586 18.571C37.586 8.312 29.174 0 18.793 0 8.41 0 0 8.312 0 18.571c0 9.27 6.872 16.953 15.857 18.347V23.94h-4.774V18.57h4.774V14.48c0-4.654 2.803-7.225 7.098-7.225 2.056 0 4.207.362 4.207.362v4.568h-2.37c-2.335 0-3.063 1.432-3.063 2.9v3.486h5.212l-.833 5.369h-4.379v12.978c8.984-1.394 15.857-9.077 15.857-18.347z" fill="#FFF3DE" fill-opacity=".29"/></g><defs><clipPath id="a"><path fill="#fff" d="M0 0H37.586V37.143H0z"/></clipPath></defs></svg>