<svg width="37" height="36" fill="none" xmlns="http://www.w3.org/2000/svg"><g clip-path="url(#a)"><path d="M18.26 8.531c-5.18 0-9.36 4.01-9.36 8.98 0 4.97 4.18 8.978 9.36 8.978s9.359-4.009 9.359-8.979c0-4.97-4.179-8.979-9.359-8.979zm0 14.817c-3.348 0-6.085-2.618-6.085-5.838s2.73-5.837 6.085-5.837c3.356 0 6.085 2.618 6.085 5.837 0 3.22-2.737 5.838-6.085 5.838zM30.185 8.164c0 1.164-.977 2.094-2.183 2.094-1.214 0-2.183-.937-2.183-2.094 0-1.156.977-2.094 2.183-2.094s2.183.938 2.183 2.094zm6.198 2.126c-.138-2.806-.806-5.29-2.948-7.338C31.301.905 28.711.264 25.786.123c-3.013-.164-12.047-.164-15.06 0-2.917.133-5.507.774-7.65 2.821C.936 4.991.276 7.476.129 10.282c-.17 2.891-.17 11.557 0 14.449.139 2.805.807 5.29 2.949 7.337 2.142 2.048 4.724 2.689 7.649 2.83 3.013.163 12.047.163 15.06 0 2.925-.134 5.515-.774 7.649-2.83 2.134-2.047 2.802-4.532 2.948-7.337.172-2.892.172-11.55 0-14.441zM32.49 27.833c-.635 1.532-1.865 2.712-3.47 3.329-2.403.914-8.104.703-10.76.703-2.655 0-8.365.204-10.76-.703-1.597-.61-2.827-1.79-3.47-3.329-.953-2.305-.733-7.775-.733-10.323 0-2.547-.212-8.025.733-10.323.635-1.531 1.865-2.711 3.47-3.329 2.403-.914 8.105-.703 10.76-.703 2.655 0 8.365-.203 10.76.703 1.597.61 2.827 1.79 3.47 3.33.953 2.305.733 7.775.733 10.322 0 2.548.22 8.026-.733 10.323z" fill="#FFF3DE" fill-opacity=".29"/></g><defs><clipPath id="a"><path fill="#fff" d="M0 0H36.512V35.02H0z"/></clipPath></defs></svg>