<svg width="37" height="33" fill="none" xmlns="http://www.w3.org/2000/svg"><g clip-path="url(#a)"><path d="M32.759 8.071c.023.355.023.709.023 1.063 0 10.804-7.53 23.253-21.29 23.253-4.24 0-8.179-1.341-11.492-3.669.602.076 1.182.101 1.807.101 3.498 0 6.719-1.29 9.29-3.491-3.29-.076-6.046-2.43-6.996-5.668.463.076.926.126 1.413.126.672 0 1.344-.101 1.97-.278-3.43-.76-6.001-4.048-6.001-8.02v-.102a7.065 7.065 0 003.382 1.037C2.85 10.956 1.53 8.451 1.53 5.617c0-1.518.37-2.91 1.02-4.124 3.683 4.959 9.22 8.198 15.429 8.552a10.045 10.045 0 01-.185-1.872C17.793 3.669 21.129 0 25.276 0c2.154 0 4.1.987 5.467 2.58a14 14 0 004.75-1.973c-.557 1.898-1.738 3.492-3.29 4.504 1.506-.177 2.965-.633 4.309-1.265a16.973 16.973 0 01-3.753 4.225z" fill="#FFF3DE" fill-opacity=".29"/></g><defs><clipPath id="a"><path fill="#fff" d="M0 0H36.512V32.898H0z"/></clipPath></defs></svg>